<?xml version="1.0" encoding="UTF-8"?>
<svg xmlns="http://www.w3.org/2000/svg" xmlns:xlink="http://www.w3.org/1999/xlink" width="512px" height="512px" viewBox="0 0 512 512" version="1.1">
<defs>
<clipPath id="clip1">
  <path d="M 143 97.246094 L 381.667969 97.246094 L 381.667969 414.082031 L 143 414.082031 Z M 143 97.246094 "/>
</clipPath>
</defs>
<g id="surface1">
<path style=" stroke:none;fill-rule:nonzero;fill:rgb(94.509804%,94.509804%,93.72549%);fill-opacity:1;" d="M 255.664062 0 C 396.863281 0 511.332031 114.464844 511.332031 255.664062 C 511.332031 396.863281 396.863281 511.332031 255.664062 511.332031 C 114.464844 511.332031 0 396.863281 0 255.664062 C 0 114.464844 114.464844 0 255.664062 0 Z M 255.664062 0 "/>
<g clip-path="url(#clip1)" clip-rule="nonzero">
<path style=" stroke:none;fill-rule:evenodd;fill:rgb(7.058824%,7.058824%,7.058824%);fill-opacity:1;" d="M 1434.953125 161.949219 L 1356.796875 161.949219 L 1356.796875 321.191406 C 1356.796875 335.6875 1359.542969 346.066406 1365.027344 352.335938 C 1370.902344 358.210938 1379.714844 361.347656 1391.46875 361.738281 C 1403.21875 361.738281 1417.714844 361.347656 1434.953125 360.5625 L 1434.953125 406.398438 C 1390.292969 412.273438 1357.582031 408.746094 1336.820312 395.820312 C 1316.058594 382.5 1305.675781 357.625 1305.675781 321.191406 L 1305.675781 161.949219 L 1247.503906 161.949219 L 1247.503906 112.589844 L 1305.675781 112.589844 L 1305.675781 45.601562 L 1356.796875 30.324219 L 1356.796875 112.589844 L 1434.953125 112.589844 Z M 768.6875 282.996094 C 773.78125 309.242188 785.726562 329.613281 804.53125 344.109375 C 823.726562 358.605469 847.230469 365.851562 875.042969 365.851562 C 913.828125 365.851562 942.03125 351.550781 959.660156 322.957031 L 1003.144531 347.636719 C 974.546875 391.902344 931.457031 414.035156 873.871094 414.035156 C 827.25 414.035156 789.253906 399.539062 759.875 370.550781 C 730.882812 341.171875 716.390625 304.152344 716.390625 259.496094 C 716.390625 215.226562 730.6875 178.402344 759.285156 149.023438 C 787.882812 119.640625 824.902344 104.953125 870.34375 104.953125 C 913.433594 104.953125 948.496094 120.230469 975.523438 150.785156 C 1002.949219 180.949219 1016.660156 217.382812 1016.660156 260.082031 C 1016.660156 267.523438 1016.074219 275.164062 1014.894531 282.996094 Z M 870.34375 153.136719 C 842.921875 153.136719 820.203125 160.96875 802.179688 176.640625 C 784.160156 191.917969 772.996094 212.484375 768.6875 238.339844 L 964.949219 238.339844 C 960.640625 210.527344 949.671875 189.371094 932.042969 174.878906 C 914.414062 160.382812 893.847656 153.136719 870.34375 153.136719 Z M 645.847656 112.589844 L 701.082031 112.589844 L 583.5625 406.398438 L 523.625 406.398438 L 406.101562 112.589844 L 461.339844 112.589844 L 553.59375 351.75 Z M 1218.214844 107.300781 C 1173.949219 107.300781 1143.390625 125.519531 1126.546875 161.949219 L 1126.546875 112.589844 L 1075.425781 112.589844 L 1075.425781 406.398438 L 1126.546875 406.398438 L 1126.546875 250.679688 C 1126.546875 218.554688 1135.558594 195.246094 1153.578125 180.753906 C 1171.597656 166.257812 1193.140625 159.597656 1218.214844 160.773438 Z M 1552.242188 344.109375 C 1533.441406 329.613281 1521.492188 309.242188 1516.398438 282.996094 L 1762.605469 282.996094 C 1763.785156 275.164062 1764.371094 267.523438 1764.371094 260.082031 C 1764.371094 217.382812 1750.660156 180.949219 1723.238281 150.785156 C 1696.207031 120.230469 1661.144531 104.953125 1618.054688 104.953125 C 1572.613281 104.953125 1535.59375 119.640625 1506.996094 149.023438 C 1478.402344 178.402344 1464.101562 215.226562 1464.101562 259.496094 C 1464.101562 304.152344 1478.59375 341.171875 1507.585938 370.550781 C 1536.964844 399.539062 1574.964844 414.035156 1621.582031 414.035156 C 1679.167969 414.035156 1722.257812 391.902344 1750.855469 347.636719 L 1707.371094 322.957031 C 1689.746094 351.550781 1661.539062 365.851562 1622.757812 365.851562 C 1594.941406 365.851562 1571.441406 358.605469 1552.242188 344.109375 Z M 1549.890625 176.640625 C 1567.914062 160.96875 1590.632812 153.136719 1618.054688 153.136719 C 1641.558594 153.136719 1662.125 160.382812 1679.753906 174.878906 C 1697.382812 189.371094 1708.351562 210.527344 1712.660156 238.339844 L 1516.398438 238.339844 C 1520.707031 212.484375 1531.871094 191.917969 1549.890625 176.640625 Z M 1874.257812 161.949219 C 1891.105469 125.519531 1921.660156 107.300781 1965.925781 107.300781 L 1965.925781 160.773438 C 1940.855469 159.597656 1919.308594 166.257812 1901.289062 180.753906 C 1883.269531 195.246094 1874.257812 218.554688 1874.257812 250.679688 L 1874.257812 406.398438 L 1823.136719 406.398438 L 1823.136719 112.589844 L 1874.257812 112.589844 Z M 147.707031 205.179688 L 199.09375 205.179688 L 199.09375 314.570312 L 328.863281 112.457031 L 376.398438 112.457031 L 376.398438 406.296875 L 324.3125 406.296875 L 324.3125 201.289062 L 194.84375 406.296875 L 147.707031 406.296875 Z M 151.96875 158.945312 C 157.773438 164.75 164.949219 167.65625 173.488281 167.65625 C 181.6875 167.65625 188.6875 164.75 194.496094 158.945312 C 200.304688 153.136719 203.207031 146.132812 203.207031 137.9375 C 203.207031 129.738281 200.304688 122.734375 194.496094 116.925781 C 188.6875 110.777344 181.6875 107.703125 173.488281 107.703125 C 164.949219 107.703125 157.773438 110.777344 151.96875 116.925781 C 146.160156 122.734375 143.257812 129.738281 143.257812 137.9375 C 143.257812 146.132812 146.160156 153.136719 151.96875 158.945312 Z M 151.96875 158.945312 "/>
</g>
</g>
</svg>
