<svg width="120" height="23" viewBox="0 0 120 23" fill="none" xmlns="http://www.w3.org/2000/svg">
<g clip-path="url(#clip0_670_1059)">
<path d="M5.54149 16.2277L15.3849 6.3916H18.291C19.3324 6.3916 20.1775 7.23664 20.1775 8.27808V22.7613H15.5473V13.0476L5.70274 22.7613H2.79786C1.75641 22.7613 0.911378 21.9162 0.911378 20.8748L0.911377 13.0191H5.54149L5.54149 16.2277Z" fill="white"/>
<path d="M35.2003 6.37842L30.9048 18.8054L26.459 6.37842H21.4724L27.5271 22.7614H34.0994L40.1541 6.37842H35.2003Z" fill="white"/>
<path d="M71.9188 10.1476H66.8025C64.99 10.1476 64.6335 10.5368 64.6335 12.77V22.7613H60.0034V11.0217C60.0034 7.84889 61.331 6.3916 64.6335 6.3916H71.9188V10.1476Z" fill="white"/>
<path d="M119.678 10.1476H114.562C112.749 10.1476 112.393 10.5368 112.393 12.77V22.7613H107.763V11.0217C107.763 7.84889 109.091 6.3916 112.393 6.3916H119.678V10.1476Z" fill="white"/>
<path d="M82.8301 18.9728C81.8262 18.9728 81.0818 18.6818 81.0818 17.2572V10.1478H85.9386V6.3918H81.0818V0.938477H76.4844V6.3918H73.2146V10.1478H76.4844V16.2219C76.4844 20.5598 77.6823 22.7615 82.1826 22.7615H86.7485V18.9728H82.8301Z" fill="white"/>
<path d="M52.3617 18.7862C51.5518 19.1706 50.3867 19.2979 49.1234 19.2979C47.8286 19.2979 46.2743 18.9778 45.3674 18.3061C44.429 17.6672 43.8132 16.707 43.5864 15.4594H58.4806C58.5134 15.0436 58.5449 15.0436 58.5449 14.5635C58.5449 9.06288 54.4325 6.37744 49.1234 6.37744C43.8144 6.37744 39.28 9.03136 39.28 14.5635C39.28 20.0956 43.8132 22.7495 49.1234 22.7495C51.3579 22.7495 53.3644 22.4622 55.0484 21.5663C56.7299 20.7042 58.1194 19.2688 58.5425 16.941H54.2058C53.7935 17.8576 53.077 18.4298 52.3593 18.785L52.3617 18.7862ZM45.2062 10.9203C46.2428 10.0243 47.9583 9.64119 49.1562 9.64119C50.451 9.64119 51.8113 9.92853 52.6212 10.4729C53.431 11.016 53.916 11.752 54.2724 12.9037H43.932C44.206 12.106 44.6339 11.4331 45.2062 10.9215V10.9203Z" fill="white"/>
<path d="M100.121 18.7862C99.3114 19.1706 98.1463 19.2979 96.8829 19.2979C95.5881 19.2979 94.0338 18.9778 93.127 18.3061C92.1886 17.6672 91.5727 16.707 91.346 15.4594H106.24C106.273 15.0436 106.304 15.0436 106.304 14.5635C106.304 9.06288 102.192 6.37744 96.8829 6.37744C91.5739 6.37744 87.0396 9.03136 87.0396 14.5635C87.0396 20.0956 91.5727 22.7495 96.8829 22.7495C99.1174 22.7495 101.124 22.4622 102.808 21.5663C104.489 20.7042 105.879 19.2688 106.302 16.941H101.965C101.553 17.8576 100.837 18.4298 100.119 18.785L100.121 18.7862ZM92.9657 10.9203C94.0023 10.0243 95.7178 9.64119 96.9157 9.64119C98.2105 9.64119 99.5708 9.92853 100.381 10.4729C101.191 11.016 101.676 11.752 102.032 12.9037H91.6915C91.9655 12.106 92.3935 11.4331 92.9657 10.9215V10.9203Z" fill="white"/>
<rect x="0.911377" y="6.3916" width="4.63012" height="4.63012" fill="white"/>
</g>
<defs>
<clipPath id="clip0_670_1059">
<rect width="118.767" height="21.823" fill="white" transform="translate(0.911377 0.938477)"/>
</clipPath>
</defs>
</svg>
